<svg width="18" height="21" viewBox="0 0 18 21" fill="none" xmlns="http://www.w3.org/2000/svg">
<path fill-rule="evenodd" clip-rule="evenodd" d="M15.75 2H12.3506C11.4983 1.04571 10.2795 0.500136 9 0.500136C7.7205 0.500136 6.5017 1.04571 5.64937 2H2.25C1.42157 2 0.75 2.67157 0.75 3.5V19.25C0.75 20.0784 1.42157 20.75 2.25 20.75H15.75C16.5784 20.75 17.25 20.0784 17.25 19.25V3.5C17.25 2.67157 16.5784 2 15.75 2V2ZM9 2C10.6569 2 12 3.34315 12 5H6C6 3.34315 7.34315 2 9 2V2ZM15.75 19.25H2.25V3.5H4.75781C4.58721 3.9817 4.50002 4.48898 4.5 5V5.75C4.5 6.16421 4.83579 6.5 5.25 6.5H12.75C13.1642 6.5 13.5 6.16421 13.5 5.75V5C13.5 4.48898 13.4128 3.9817 13.2422 3.5H15.75V19.25Z" fill="#0D141C"/>
</svg>
