<svg width="20" height="18" viewBox="0 0 20 18" fill="none" xmlns="http://www.w3.org/2000/svg">
<path fill-rule="evenodd" clip-rule="evenodd" d="M19.75 16.5C19.75 16.9142 19.4142 17.25 19 17.25H1C0.585786 17.25 0.25 16.9142 0.25 16.5V1.5C0.25 1.08579 0.585786 0.75 1 0.75C1.41421 0.75 1.75 1.08579 1.75 1.5V11.6897L6.46937 6.96937C6.61005 6.82854 6.80094 6.74941 7 6.74941C7.19906 6.74941 7.38995 6.82854 7.53063 6.96937L10 9.43969L14.9397 4.5H13C12.5858 4.5 12.25 4.16421 12.25 3.75C12.25 3.33579 12.5858 3 13 3H16.75C17.1642 3 17.5 3.33579 17.5 3.75V7.5C17.5 7.91421 17.1642 8.25 16.75 8.25C16.3358 8.25 16 7.91421 16 7.5V5.56031L10.5306 11.0306C10.3899 11.1715 10.1991 11.2506 10 11.2506C9.80094 11.2506 9.61005 11.1715 9.46937 11.0306L7 8.56031L1.75 13.8103V15.75H19C19.4142 15.75 19.75 16.0858 19.75 16.5V16.5Z" fill="#0D141C"/>
</svg>
